<svg width="208" height="60" viewBox="0 0 208 60" fill="none" xmlns="http://www.w3.org/2000/svg">
<path d="M206.845 53.0804C206.845 56.2779 204.197 58.8679 200.922 58.8679H7.08706C3.81345 58.8679 1.15625 56.2779 1.15625 53.0804V6.92712C1.15625 3.73116 3.81345 1.13208 7.08706 1.13208H200.921C204.197 1.13208 206.844 3.73116 206.844 6.92712L206.845 53.0804Z" fill="black"/>
<path d="M200.296 1.20187C203.863 1.20187 206.765 4.0275 206.765 7.5V52.5C206.765 55.9725 203.863 58.7981 200.296 58.7981H7.7037C4.13689 58.7981 1.23452 55.9725 1.23452 52.5V7.5C1.23452 4.0275 4.13689 1.20187 7.7037 1.20187H200.296ZM200.296 3.17096e-06H7.7037C3.46859 3.17096e-06 0 3.37688 0 7.5V52.5C0 56.6231 3.46859 60 7.7037 60H200.296C204.531 60 208 56.6231 208 52.5V7.5C208 3.37688 204.531 3.17096e-06 200.296 3.17096e-06Z" fill="#A6A6A6"/>
<path d="M46.4194 29.6759C46.3747 24.8414 50.4854 22.4894 50.6734 22.3799C48.3453 19.0754 44.7369 18.6239 43.4689 18.5879C40.4383 18.2774 37.4985 20.3534 35.9547 20.3534C34.3801 20.3534 32.0027 18.6179 29.4405 18.6689C26.1433 18.7184 23.0587 20.5769 21.367 23.4629C17.8756 29.3474 20.4795 37.9949 23.8245 42.7514C25.4977 45.0809 27.4529 47.6819 30.0121 47.5904C32.5158 47.4899 33.451 46.0364 36.4724 46.0364C39.4661 46.0364 40.3443 47.5904 42.9543 47.5319C45.6413 47.4899 47.3331 45.1919 48.9478 42.8414C50.8814 40.1714 51.6579 37.5419 51.6887 37.4069C51.6256 37.3859 46.4703 35.4704 46.4194 29.6759Z" fill="white"/>
<path d="M41.489 15.4589C42.8357 13.8194 43.757 11.5889 43.5013 9.32544C41.5522 9.40944 39.1148 10.6379 37.7111 12.2414C36.4693 13.6544 35.36 15.9704 35.6466 18.1484C37.8359 18.3074 40.0839 17.0729 41.489 15.4589Z" fill="white"/>
<path d="M82.652 47.2559H79.153L77.2363 41.3924H70.5742L68.7484 47.2559H65.3418L71.9423 27.2939H76.0191L82.652 47.2559ZM76.6585 38.9324L74.9252 33.7199C74.7419 33.1874 74.3983 31.9334 73.8914 29.9594H73.8297C73.6279 30.8084 73.3028 32.0624 72.856 33.7199L71.1535 38.9324H76.6585Z" fill="white"/>
<path d="M99.6267 39.8819C99.6267 42.3299 98.9472 44.2649 97.5883 45.6854C96.3711 46.9499 94.8596 47.5814 93.0554 47.5814C91.1079 47.5814 89.7089 46.9004 88.8569 45.5384H88.7952V53.1209H85.5104V37.6004C85.5104 36.0614 85.4688 34.4819 85.3887 32.8619H88.2776L88.4609 35.1434H88.5225C89.618 33.4244 91.2805 32.5664 93.5115 32.5664C95.2556 32.5664 96.7116 33.2369 97.8764 34.5794C99.0443 35.9234 99.6267 37.6904 99.6267 39.8819ZM96.2802 39.9989C96.2802 38.5979 95.9566 37.4429 95.3064 36.5339C94.5961 35.5859 93.6424 35.1119 92.4468 35.1119C91.6364 35.1119 90.8999 35.3759 90.242 35.8964C89.5826 36.4214 89.1512 37.1069 88.9493 37.9559C88.8476 38.3519 88.7968 38.6759 88.7968 38.9309V41.3309C88.7968 42.3779 89.1265 43.2614 89.7859 43.9829C90.4454 44.7044 91.302 45.0644 92.3559 45.0644C93.5931 45.0644 94.5561 44.5994 95.2448 43.6724C95.935 42.7439 96.2802 41.5199 96.2802 39.9989Z" fill="white"/>
<path d="M116.631 39.8819C116.631 42.3299 115.952 44.2649 114.591 45.6854C113.375 46.9499 111.864 47.5814 110.06 47.5814C108.112 47.5814 106.713 46.9004 105.863 45.5384H105.801V53.1209H102.516V37.6004C102.516 36.0614 102.475 34.4819 102.395 32.8619H105.283L105.467 35.1434H105.528C106.622 33.4244 108.285 32.5664 110.517 32.5664C112.26 32.5664 113.716 33.2369 114.884 34.5794C116.047 35.9234 116.631 37.6904 116.631 39.8819ZM113.284 39.9989C113.284 38.5979 112.959 37.4429 112.309 36.5339C111.599 35.5859 110.648 35.1119 109.451 35.1119C108.639 35.1119 107.904 35.3759 107.245 35.8964C106.585 36.4214 106.155 37.1069 105.954 37.9559C105.853 38.3519 105.801 38.6759 105.801 38.9309V41.3309C105.801 42.3779 106.131 43.2614 106.787 43.9829C107.447 44.7029 108.303 45.0644 109.36 45.0644C110.597 45.0644 111.56 44.5994 112.249 43.6724C112.939 42.7439 113.284 41.5199 113.284 39.9989Z" fill="white"/>
<path d="M135.646 41.658C135.646 43.356 135.041 44.7375 133.825 45.804C132.489 46.9695 130.629 47.5515 128.24 47.5515C126.033 47.5515 124.265 47.1375 122.926 46.308L123.687 43.6425C125.129 44.4915 126.711 44.9175 128.435 44.9175C129.673 44.9175 130.636 44.6445 131.327 44.1015C132.016 43.5585 132.36 42.8295 132.36 41.9205C132.36 41.1105 132.076 40.428 131.508 39.8745C130.942 39.321 129.998 38.8065 128.679 38.331C125.089 37.0275 123.296 35.118 123.296 32.607C123.296 30.966 123.924 29.6205 125.183 28.5735C126.437 27.525 128.11 27.0015 130.203 27.0015C132.069 27.0015 133.619 27.318 134.856 27.9495L134.035 30.5565C132.879 29.9445 131.572 29.6385 130.11 29.6385C128.955 29.6385 128.052 29.916 127.405 30.468C126.858 30.9615 126.583 31.563 126.583 32.2755C126.583 33.0645 126.896 33.717 127.525 34.23C128.072 34.704 129.066 35.217 130.508 35.7705C132.272 36.462 133.568 37.2705 134.401 38.1975C135.232 39.1215 135.646 40.278 135.646 41.658Z" fill="white"/>
<path d="M146.504 35.2619H142.883V42.2504C142.883 44.0279 143.521 44.9159 144.8 44.9159C145.387 44.9159 145.874 44.8664 146.259 44.7674L146.35 47.1959C145.703 47.4314 144.851 47.5499 143.795 47.5499C142.498 47.5499 141.484 47.1644 140.753 46.3949C140.024 45.6239 139.657 44.3309 139.657 42.5144V35.2589H137.5V32.8589H139.657V30.2234L142.883 29.2754V32.8589H146.504V35.2619Z" fill="white"/>
<path d="M162.841 39.9404C162.841 42.1529 162.191 43.9694 160.893 45.3899C159.533 46.8524 157.727 47.5814 155.476 47.5814C153.307 47.5814 151.58 46.8809 150.291 45.4799C149.003 44.0789 148.359 42.3104 148.359 40.1789C148.359 37.9484 149.022 36.1214 150.352 34.7009C151.678 33.2789 153.468 32.5679 155.719 32.5679C157.889 32.5679 159.635 33.2684 160.952 34.6709C162.212 36.0314 162.841 37.7879 162.841 39.9404ZM159.433 40.0439C159.433 38.7164 159.141 37.5779 158.551 36.6284C157.863 35.4794 156.878 34.9064 155.602 34.9064C154.282 34.9064 153.279 35.4809 152.59 36.6284C152 37.5794 151.709 38.7359 151.709 40.1039C151.709 41.4314 152 42.5699 152.59 43.5179C153.301 44.6669 154.293 45.2399 155.573 45.2399C156.827 45.2399 157.812 44.6549 158.522 43.4879C159.128 42.5204 159.433 41.3699 159.433 40.0439Z" fill="white"/>
<path d="M173.518 35.6744C173.193 35.6159 172.846 35.5859 172.482 35.5859C171.327 35.5859 170.433 36.0104 169.804 36.8609C169.257 37.6109 168.983 38.5589 168.983 39.7034V47.2559H165.7L165.731 37.3949C165.731 35.7359 165.689 34.2254 165.607 32.8634H168.469L168.589 35.6174H168.68C169.026 34.6709 169.573 33.9089 170.322 33.3374C171.054 32.8229 171.844 32.5664 172.696 32.5664C173 32.5664 173.274 32.5874 173.518 32.6249V35.6744Z" fill="white"/>
<path d="M188.21 39.378C188.21 39.951 188.171 40.434 188.09 40.8285H178.235C178.274 42.2505 178.75 43.338 179.665 44.088C180.495 44.7585 181.569 45.0945 182.888 45.0945C184.347 45.0945 185.678 44.868 186.875 44.4135L187.39 46.6335C185.991 47.2275 184.339 47.523 182.434 47.523C180.141 47.523 178.341 46.866 177.032 45.5535C175.725 44.241 175.07 42.4785 175.07 40.2675C175.07 38.097 175.679 36.2895 176.898 34.848C178.173 33.309 179.897 32.5396 182.067 32.5396C184.198 32.5396 185.811 33.309 186.906 34.848C187.774 36.0705 188.21 37.5826 188.21 39.378ZM185.077 38.5485C185.099 37.6005 184.885 36.7815 184.44 36.09C183.871 35.2005 182.997 34.7565 181.822 34.7565C180.748 34.7565 179.874 35.1901 179.207 36.0601C178.66 36.7516 178.335 37.581 178.235 38.547H185.077V38.5485Z" fill="white"/>
<path d="M75.5729 15.0135C75.5729 16.779 75.029 18.108 73.9428 19.0005C72.9367 19.824 71.5069 20.2365 69.6549 20.2365C68.7366 20.2365 67.9509 20.1975 67.293 20.1195V10.473C68.1512 10.338 69.0756 10.269 70.074 10.269C71.8382 10.269 73.1678 10.6425 74.0645 11.3895C75.0691 12.234 75.5729 13.4415 75.5729 15.0135ZM73.8704 15.057C73.8704 13.9125 73.5592 13.035 72.9367 12.423C72.3142 11.8125 71.4052 11.5065 70.2081 11.5065C69.6996 11.5065 69.2667 11.5395 68.9077 11.6085V18.942C69.1064 18.972 69.47 18.9855 69.9985 18.9855C71.2342 18.9855 72.1879 18.651 72.8597 17.982C73.5314 17.313 73.8704 16.338 73.8704 15.057Z" fill="white"/>
<path d="M84.5999 16.5556C84.5999 17.6431 84.281 18.5341 83.6431 19.2331C82.9744 19.9516 82.0885 20.3101 80.9823 20.3101C79.9161 20.3101 79.0671 19.9666 78.4339 19.2766C77.8022 18.5881 77.4863 17.7196 77.4863 16.6726C77.4863 15.5776 77.8114 14.6791 78.4647 13.9816C79.118 13.2841 79.9962 12.9346 81.1024 12.9346C82.1686 12.9346 83.0253 13.2781 83.6739 13.9666C84.2902 14.6356 84.5999 15.4996 84.5999 16.5556ZM82.9251 16.6066C82.9251 15.9541 82.7803 15.3946 82.4922 14.9281C82.1532 14.3641 81.671 14.0821 81.0439 14.0821C80.3953 14.0821 79.9022 14.3641 79.5632 14.9281C79.2736 15.3946 79.1303 15.9631 79.1303 16.6351C79.1303 17.2876 79.2751 17.8471 79.5632 18.3136C79.913 18.8776 80.3999 19.1596 81.0285 19.1596C81.6448 19.1596 82.1286 18.8731 82.4768 18.2986C82.7757 17.8231 82.9251 17.2591 82.9251 16.6066Z" fill="white"/>
<path d="M96.7049 13.0785L94.4323 20.1495H92.9532L92.0118 17.079C91.773 16.3125 91.5789 15.5505 91.4279 14.7945H91.3986C91.2584 15.5715 91.0642 16.332 90.8146 17.079L89.8147 20.1495H88.3186L86.1816 13.0785H87.841L88.6622 16.44C88.861 17.235 89.0243 17.9925 89.1553 18.7095H89.1845C89.3047 18.1185 89.5035 17.3655 89.7839 16.455L90.8146 13.08H92.1304L93.118 16.383C93.3569 17.1885 93.551 17.964 93.7004 18.711H93.7451C93.8545 17.9835 94.0194 17.208 94.2382 16.383L95.1195 13.08H96.7049V13.0785Z" fill="white"/>
<path d="M105.075 20.1494H103.461V16.0994C103.461 14.8514 102.974 14.2274 101.997 14.2274C101.518 14.2274 101.131 14.3984 100.831 14.7419C100.533 15.0854 100.382 15.4904 100.382 15.9539V20.1479H98.7675V15.0989C98.7675 14.4779 98.7475 13.8044 98.709 13.0754H100.128L100.204 14.1809H100.248C100.436 13.8374 100.717 13.5539 101.085 13.3274C101.522 13.0634 102.012 12.9299 102.548 12.9299C103.226 12.9299 103.79 13.1429 104.239 13.5704C104.796 14.0939 105.075 14.8754 105.075 15.9134V20.1494Z" fill="white"/>
<path d="M109.527 20.1495H107.914V9.83398H109.527V20.1495Z" fill="white"/>
<path d="M119.034 16.5556C119.034 17.6431 118.715 18.5341 118.077 19.2331C117.408 19.9516 116.521 20.3101 115.416 20.3101C114.348 20.3101 113.499 19.9666 112.867 19.2766C112.236 18.5881 111.92 17.7196 111.92 16.6726C111.92 15.5776 112.245 14.6791 112.898 13.9816C113.552 13.2841 114.43 12.9346 115.535 12.9346C116.602 12.9346 117.457 13.2781 118.108 13.9666C118.724 14.6356 119.034 15.4996 119.034 16.5556ZM117.357 16.6066C117.357 15.9541 117.212 15.3946 116.924 14.9281C116.587 14.3641 116.103 14.0821 115.477 14.0821C114.827 14.0821 114.334 14.3641 113.997 14.9281C113.707 15.3946 113.564 15.9631 113.564 16.6351C113.564 17.2876 113.709 17.8471 113.997 18.3136C114.347 18.8776 114.833 19.1596 115.462 19.1596C116.078 19.1596 116.561 18.8731 116.909 18.2986C117.209 17.8231 117.357 17.2591 117.357 16.6066Z" fill="white"/>
<path d="M126.849 20.1496H125.4L125.279 19.3351H125.235C124.739 19.9846 124.031 20.3101 123.113 20.3101C122.427 20.3101 121.873 20.0956 121.455 19.6696C121.076 19.2826 120.887 18.8011 120.887 18.2296C120.887 17.3656 121.256 16.7071 122.001 16.2511C122.743 15.7951 123.788 15.5716 125.133 15.5821V15.4501C125.133 14.5186 124.631 14.0536 123.625 14.0536C122.908 14.0536 122.276 14.2291 121.731 14.5771L121.403 13.5451C122.078 13.1386 122.911 12.9346 123.894 12.9346C125.792 12.9346 126.745 13.9096 126.745 15.8596V18.4636C126.745 19.1701 126.78 19.7326 126.849 20.1496ZM125.173 17.7196V16.6291C123.392 16.5991 122.501 17.0746 122.501 18.0541C122.501 18.4231 122.603 18.6991 122.811 18.8836C123.019 19.0681 123.284 19.1596 123.6 19.1596C123.954 19.1596 124.286 19.0501 124.588 18.8326C124.891 18.6136 125.078 18.3361 125.147 17.9956C125.164 17.9191 125.173 17.8261 125.173 17.7196Z" fill="white"/>
<path d="M136.023 20.1495H134.59L134.515 19.014H134.47C134.012 19.878 133.233 20.31 132.137 20.31C131.262 20.31 130.534 19.9755 129.956 19.3065C129.378 18.6375 129.09 17.769 129.09 16.7025C129.09 15.558 129.403 14.631 130.031 13.923C130.64 13.263 131.386 12.933 132.273 12.933C133.248 12.933 133.931 13.2525 134.319 13.893H134.35V9.83398H135.966V18.2445C135.966 18.933 135.985 19.5675 136.023 20.1495ZM134.35 17.1675V15.9885C134.35 15.7845 134.335 15.6195 134.305 15.4935C134.214 15.1155 134.019 14.7975 133.721 14.541C133.421 14.2845 133.059 14.1555 132.641 14.1555C132.039 14.1555 131.567 14.388 131.221 14.8545C130.877 15.321 130.703 15.9165 130.703 16.644C130.703 17.343 130.868 17.91 131.199 18.3465C131.549 18.8115 132.02 19.044 132.61 19.044C133.14 19.044 133.564 18.8505 133.886 18.462C134.197 18.1035 134.35 17.6715 134.35 17.1675Z" fill="white"/>
<path d="M149.834 16.5556C149.834 17.6431 149.515 18.5341 148.877 19.2331C148.209 19.9516 147.324 20.3101 146.217 20.3101C145.152 20.3101 144.303 19.9666 143.668 19.2766C143.037 18.5881 142.721 17.7196 142.721 16.6726C142.721 15.5776 143.046 14.6791 143.699 13.9816C144.352 13.2841 145.231 12.9346 146.338 12.9346C147.403 12.9346 148.261 13.2781 148.908 13.9666C149.525 14.6356 149.834 15.4996 149.834 16.5556ZM148.161 16.6066C148.161 15.9541 148.016 15.3946 147.728 14.9281C147.388 14.3641 146.907 14.0821 146.278 14.0821C145.631 14.0821 145.138 14.3641 144.798 14.9281C144.508 15.3946 144.365 15.9631 144.365 16.6351C144.365 17.2876 144.51 17.8471 144.798 18.3136C145.147 18.8776 145.634 19.1596 146.263 19.1596C146.879 19.1596 147.364 18.8731 147.713 18.2986C148.01 17.8231 148.161 17.2591 148.161 16.6066Z" fill="white"/>
<path d="M158.515 20.1494H156.902V16.0994C156.902 14.8514 156.415 14.2274 155.437 14.2274C154.958 14.2274 154.571 14.3984 154.272 14.7419C153.973 15.0854 153.824 15.4904 153.824 15.9539V20.1479H152.207V15.0989C152.207 14.4779 152.189 13.8044 152.15 13.0754H153.568L153.643 14.1809H153.688C153.878 13.8374 154.158 13.5539 154.525 13.3274C154.964 13.0634 155.452 12.9299 155.99 12.9299C156.666 12.9299 157.23 13.1429 157.679 13.5704C158.238 14.0939 158.515 14.8754 158.515 15.9134V20.1494Z" fill="white"/>
<path d="M169.38 14.256H167.602V17.691C167.602 18.564 167.918 19.0005 168.544 19.0005C168.834 19.0005 169.074 18.9765 169.263 18.927L169.305 20.1195C168.986 20.2365 168.567 20.295 168.051 20.295C167.413 20.295 166.917 20.106 166.558 19.728C166.197 19.35 166.019 18.714 166.019 17.8215V14.256H164.957V13.0785H166.019V11.7825L167.601 11.3175V13.077H169.379V14.256H169.38Z" fill="white"/>
<path d="M177.929 20.1495H176.313V16.1295C176.313 14.862 175.826 14.2275 174.851 14.2275C174.102 14.2275 173.59 14.595 173.31 15.33C173.262 15.4845 173.234 15.6735 173.234 15.8955V20.148H171.621V9.83398H173.234V14.0955H173.265C173.774 13.32 174.502 12.933 175.447 12.933C176.115 12.933 176.669 13.146 177.108 13.5735C177.655 14.106 177.929 14.898 177.929 15.945V20.1495Z" fill="white"/>
<path d="M186.748 16.2795C186.748 16.5615 186.727 16.7985 186.688 16.992H181.846C181.867 17.691 182.098 18.2235 182.547 18.5925C182.957 18.9225 183.485 19.0875 184.132 19.0875C184.849 19.0875 185.502 18.9765 186.09 18.753L186.343 19.845C185.654 20.136 184.844 20.2815 183.906 20.2815C182.781 20.2815 181.895 19.959 181.254 19.314C180.61 18.669 180.291 17.8035 180.291 16.7175C180.291 15.651 180.588 14.763 181.188 14.055C181.813 13.299 182.659 12.921 183.727 12.921C184.771 12.921 185.565 13.299 186.101 14.055C186.534 14.655 186.748 15.3975 186.748 16.2795ZM185.208 15.873C185.22 15.4065 185.114 15.0045 184.895 14.6655C184.614 14.229 184.188 14.01 183.61 14.01C183.083 14.01 182.653 14.223 182.325 14.6505C182.057 14.991 181.898 15.3975 181.846 15.873H185.208Z" fill="white"/>
</svg>
